<svg width="63" height="34" viewBox="0 0 63 34" fill="none" xmlns="http://www.w3.org/2000/svg">
<rect width="63" height="34" rx="6" fill="#323232"/>
<g clip-path="url(#clip0_31_20778)">
<mask id="mask0_31_20778" style="mask-type:luminance" maskUnits="userSpaceOnUse" x="8" y="9" width="16" height="16">
<path d="M16 25C20.4183 25 24 21.4183 24 17C24 12.5817 20.4183 9 16 9C11.5817 9 8 12.5817 8 17C8 21.4183 11.5817 25 16 25Z" fill="white"/>
</mask>
<g mask="url(#mask0_31_20778)">
<path d="M16 9H24V11L23 12L24 13V15L23 16L24 17V19L23 20L24 21V23L16 24L8 23V21L9 20L8 19V17L16 9Z" fill="#EEEEEE"/>
<path d="M15 11H24V13H15V11ZM15 15H24V17H16L15 15ZM8 19H24V21H8V19ZM8 23H24V25H8V23Z" fill="#D80027"/>
<path d="M8 9H16V17H8V9Z" fill="#0052B4"/>
<path d="M13.8438 16.5938L15.625 15.3125H13.4375L15.2188 16.5938L14.5312 14.5L13.8438 16.5938ZM11.3125 16.5938L13.0938 15.3125H10.9062L12.6875 16.5938L12 14.5L11.3125 16.5938ZM8.78125 16.5938L10.5625 15.3125H8.375L10.1562 16.5938L9.46875 14.5L8.78125 16.5938ZM13.8438 14.0625L15.625 12.7812H13.4375L15.2188 14.0625L14.5312 11.9688L13.8438 14.0625ZM11.3125 14.0625L13.0938 12.7812H10.9062L12.6875 14.0625L12 11.9688L11.3125 14.0625ZM8.78125 14.0625L10.5625 12.7812H8.375L10.1562 14.0625L9.46875 11.9688L8.78125 14.0625ZM13.8438 11.5L15.625 10.2188H13.4375L15.2188 11.5L14.5312 9.40625L13.8438 11.5ZM11.3125 11.5L13.0938 10.2188H10.9062L12.6875 11.5L12 9.40625L11.3125 11.5ZM8.78125 11.5L10.5625 10.2188H8.375L10.1562 11.5L9.46875 9.40625L8.78125 11.5Z" fill="#EEEEEE"/>
</g>
</g>
<path d="M34.765 17.84C34.865 17.84 34.915 17.89 34.915 17.99V18.62C34.915 18.72 34.865 18.77 34.765 18.77H32.275C32.235 18.77 32.215 18.79 32.215 18.83V21.26C32.215 21.36 32.165 21.41 32.065 21.41H31.435C31.335 21.41 31.285 21.36 31.285 21.26V18.83C31.285 18.79 31.265 18.77 31.225 18.77H28.735C28.635 18.77 28.585 18.72 28.585 18.62V17.99C28.585 17.89 28.635 17.84 28.735 17.84H31.225C31.265 17.84 31.285 17.82 31.285 17.78V15.23C31.285 15.13 31.335 15.08 31.435 15.08H32.065C32.165 15.08 32.215 15.13 32.215 15.23V17.78C32.215 17.82 32.235 17.84 32.275 17.84H34.765ZM38.05 12.545C38.11 12.515 38.175 12.5 38.245 12.5H39.055C39.155 12.5 39.205 12.55 39.205 12.65V22.85C39.205 22.95 39.155 23 39.055 23H38.29C38.19 23 38.14 22.95 38.14 22.85V13.715C38.14 13.695 38.13 13.68 38.11 13.67C38.1 13.66 38.085 13.66 38.065 13.67L36.475 14.315L36.415 14.33C36.355 14.33 36.315 14.29 36.295 14.21L36.22 13.64V13.61C36.22 13.56 36.255 13.51 36.325 13.46L38.05 12.545Z" fill="white" fill-opacity="0.6"/>
<path d="M47.5115 15.4894L49.5312 18.9875C49.789 19.4344 50.2109 19.4344 50.4687 18.9875L52.4884 15.4891C52.7465 15.0422 52.5353 14.6772 52.0197 14.6772H47.9803C47.4647 14.6772 47.2534 15.0425 47.5115 15.4894Z" fill="#D8D8D8"/>
<defs>
<clipPath id="clip0_31_20778">
<rect width="16" height="16" fill="white" transform="translate(8 9)"/>
</clipPath>
</defs>
</svg>
